<svg width="89" height="89" viewBox="0 0 89 89" fill="none" xmlns="http://www.w3.org/2000/svg">
<path d="M66.375 6.61203C73.0259 10.4519 78.5488 15.9749 82.3887 22.6258C86.2286 29.2767 88.25 36.8211 88.25 44.5009C88.25 52.1807 86.2284 59.7252 82.3884 66.376C78.5484 73.0268 73.0254 78.5497 66.3745 82.3895C59.7236 86.2293 52.1791 88.2508 44.4993 88.2506C36.8195 88.2505 29.2751 86.2289 22.6243 82.3888C15.9735 78.5488 10.4506 73.0258 6.6109 66.3748C2.77116 59.7238 0.749805 52.1793 0.75 44.4995L0.771876 43.082C1.01689 35.5264 3.21552 28.1631 7.15342 21.7101C11.0913 15.2571 16.6341 9.93463 23.2414 6.26152C29.8487 2.5884 37.295 0.690015 44.8544 0.751445C52.4138 0.812874 59.8283 2.83202 66.375 6.61203ZM48.875 18.2495C47.7147 18.2495 46.6019 18.7105 45.7814 19.5309C44.9609 20.3514 44.5 21.4642 44.5 22.6245H40.125C40.125 21.4642 39.6641 20.3514 38.8436 19.5309C38.0231 18.7105 36.9103 18.2495 35.75 18.2495C34.5897 18.2495 33.4769 18.7105 32.6564 19.5309C31.8359 20.3514 31.375 21.4642 31.375 22.6245C30.2147 22.6245 29.1019 23.0855 28.2814 23.9059C27.4609 24.7264 27 25.8392 27 26.9995C27 28.1599 27.4609 29.2726 28.2814 30.0931C29.1019 30.9136 30.2147 31.3745 31.375 31.3745V57.6245C30.2147 57.6245 29.1019 58.0855 28.2814 58.9059C27.4609 59.7264 27 60.8392 27 61.9995C27 63.1599 27.4609 64.2727 28.2814 65.0931C29.1019 65.9136 30.2147 66.3745 31.375 66.3745C31.375 72.2064 40.125 72.2064 40.125 66.3745H44.5C44.5 67.5349 44.9609 68.6477 45.7814 69.4681C46.6019 70.2886 47.7147 70.7495 48.875 70.7495C50.0353 70.7495 51.1481 70.2886 51.9686 69.4681C52.7891 68.6477 53.25 67.5349 53.25 66.3745V65.7183C58.3556 63.9945 62 59.0377 62 53.2495L61.9781 52.4839C61.8166 49.5387 60.6878 46.7291 58.7669 44.4908C60.7794 42.1633 62 39.0964 62 35.7495C62 29.9614 58.3556 25.0045 53.25 23.2808V22.6245C53.25 21.4642 52.7891 20.3514 51.9686 19.5309C51.1481 18.7105 50.0353 18.2495 48.875 18.2495ZM49.2687 48.8745C51.4212 48.8745 53.25 50.7864 53.25 53.2495C53.25 55.7127 51.4212 57.6245 49.2687 57.6245H40.125V48.8745H49.2687ZM49.2687 31.3745C51.4212 31.3745 53.25 33.2864 53.25 35.7495C53.25 38.0333 51.675 39.8489 49.7238 40.0939L49.2687 40.1245H40.125V31.3745H49.2687Z" fill="#fff"/>
</svg>
