<svg width="155" height="138" viewBox="0 0 155 138" fill="none" xmlns="http://www.w3.org/2000/svg">
<path d="M83.9583 6.45833V9.28385C85.6805 9.60677 87.349 10.0104 88.8559 10.4141C92.3003 11.329 94.3455 14.8811 93.4306 18.3255C92.5156 21.77 88.9635 23.8151 85.5191 22.9002C82.5859 22.1198 79.8411 21.5816 77.3924 21.5547C75.4279 21.5278 73.4366 22.0122 72.1719 22.7387C71.6068 23.0885 71.3377 23.3845 71.23 23.546C71.1493 23.6806 71.0417 23.8689 71.0417 24.2995V24.4609C71.0955 24.5148 71.2838 24.7839 71.9297 25.1606C73.4904 26.1024 75.8047 26.829 79.3029 27.8785L79.5451 27.9592C82.5321 28.8472 86.5148 30.0582 89.7439 32.0764C93.4305 34.3906 96.7674 38.2387 96.8481 44.1589C96.9288 50.2135 93.7804 54.6267 89.6632 57.2101C87.8602 58.3134 85.9227 59.0937 83.9314 59.5781V62.4306C83.9314 66.0095 81.0521 68.8889 77.4731 68.8889C73.8941 68.8889 71.0148 66.0095 71.0148 62.4306V59.3628C68.4583 58.7439 66.1172 57.9366 64.1259 57.2639C63.5608 57.0755 63.0226 56.8871 62.5113 56.7257C59.1207 55.5955 57.2908 51.9358 58.421 48.5451C59.5512 45.1545 63.2109 43.3246 66.6016 44.4549C67.3012 44.697 67.947 44.9123 68.566 45.1276C72.2257 46.3654 74.8628 47.2535 77.6884 47.3611C79.8411 47.4418 81.7517 46.9306 82.855 46.2578C83.3663 45.9349 83.6085 45.6658 83.7161 45.4774C83.8238 45.316 83.9583 44.9931 83.9314 44.3741V44.3203C83.9314 44.0512 83.9314 43.7552 82.855 43.0825C81.3212 42.1137 79.0069 41.3602 75.5625 40.3108L75.0512 40.1493C72.145 39.2882 68.3238 38.1311 65.2561 36.2743C61.6233 34.0946 58.125 30.3542 58.0981 24.4071C58.0712 18.2448 61.5694 14.02 65.5521 11.6519C67.2743 10.6293 69.1311 9.92969 70.9878 9.44531V6.45833C70.9878 2.87934 73.8672 0 77.4462 0C81.0252 0 83.9045 2.87934 83.9045 6.45833H83.9583ZM152.901 90.4974C156.426 95.2873 155.404 102.015 150.614 105.54L116.546 130.647C110.249 135.275 102.661 137.778 94.8299 137.778H8.61111C3.84809 137.778 0 133.93 0 129.167V111.944C0 107.181 3.84809 103.333 8.61111 103.333H18.5139L30.5964 93.6458C36.7049 88.7483 44.2934 86.1111 52.1241 86.1111H94.7222C99.4852 86.1111 103.333 89.9592 103.333 94.7222C103.333 99.4852 99.4852 103.333 94.7222 103.333H73.1944C70.8264 103.333 68.8889 105.271 68.8889 107.639C68.8889 110.007 70.8264 111.944 73.1944 111.944H105.648L137.858 88.2101C142.648 84.6849 149.376 85.7075 152.901 90.4974Z" fill="#fff"/>
</svg>
