<svg width="103" height="57" viewBox="0 0 103 57" fill="none" xmlns="http://www.w3.org/2000/svg">
<path d="M9.875 37.75L12.1875 38.0737L33.3237 16.9375C32.8997 15.3844 32.8991 13.7461 33.322 12.1928C33.7449 10.6394 34.5759 9.22751 35.7288 8.10375C39.3363 4.45 45.1637 4.45 48.7712 8.10375C51.2225 10.5088 52.0088 13.9313 51.1763 16.9375L63.0625 28.8237L65.375 28.5C66.2075 28.5 66.9938 28.5 67.6875 28.8237L84.1987 12.3125C83.875 11.6187 83.875 10.8325 83.875 10C83.875 7.54675 84.8496 5.19397 86.5843 3.45926C88.319 1.72455 90.6717 0.75 93.125 0.75C95.5783 0.75 97.931 1.72455 99.6657 3.45926C101.4 5.19397 102.375 7.54675 102.375 10C102.375 12.4533 101.4 14.806 99.6657 16.5407C97.931 18.2754 95.5783 19.25 93.125 19.25C92.2925 19.25 91.5062 19.25 90.8125 18.9263L74.3013 35.4375C74.625 36.1312 74.625 36.9175 74.625 37.75C74.625 40.2033 73.6504 42.556 71.9157 44.2907C70.181 46.0254 67.8283 47 65.375 47C62.9217 47 60.569 46.0254 58.8343 44.2907C57.0996 42.556 56.125 40.2033 56.125 37.75L56.4487 35.4375L44.5625 23.5513C43.0825 23.875 41.4175 23.875 39.9375 23.5513L18.8012 44.6875L19.125 47C19.125 49.4533 18.1504 51.806 16.4157 53.5407C14.681 55.2754 12.3283 56.25 9.875 56.25C7.42175 56.25 5.06897 55.2754 3.33426 53.5407C1.59955 51.806 0.625 49.4533 0.625 47C0.625 44.5467 1.59955 42.194 3.33426 40.4593C5.06897 38.7246 7.42175 37.75 9.875 37.75Z" fill="#fff"/>
</svg>
